<svg xmlns="http://www.w3.org/2000/svg" xmlns:xlink="http://www.w3.org/1999/xlink" width="116.49539" height="98.4459" viewBox="0 0 116.49539 98.4459">
  <defs>
    <clipPath id="a" transform="translate(-337.757 -256.9836)">
      <rect x="325.60259" y="248.5967" width="140.7948" height="114.8066" style="fill: none"/>
    </clipPath>
  </defs>
  <g style="clip-path: url(#a)">
    <rect x="42.41709" y="7.6951" width="31.4973" height="56.6087" style="fill: #ff5f00"/>
    <path d="M382.25239,292.9836a35.93459,35.93459,0,0,1,13.7527-28.3038,36,36,0,1,0,0,56.6076,35.93474,35.93474,0,0,1-13.7527-28.3038" transform="translate(-337.757 -256.9836)" style="fill: #eb001b"/>
    <path d="M450.81509,315.2901v-1.1586h.4675v-.2358h-1.1895v.2358h.4675v1.1586Zm2.311,0v-1.3964h-.3646l-.4203.9608-.4191-.9608h-.3646v1.3964h.2574v-1.0535l.3924.9083h.2679l.3933-.9104v1.0556Z" transform="translate(-337.757 -256.9836)" style="fill: #f79e1b"/>
    <path d="M418.25229,256.9836a35.84478,35.84478,0,0,0-22.2481,7.6962,36.0014,36.0014,0,0,1,0,56.6076,36.00051,36.00051,0,1,0,22.2481-64.3038" transform="translate(-337.757 -256.9836)" style="fill: #f79e1b"/>
  </g>
</svg>
